/* XPM */
static char *_f3c74d999b44ea0d518a482439f20b5veZ0aOL2Ak5VwCut[] = {
/* columns rows colors chars-per-pixel */
"32 32 8 1 ",
"  c None",
". c black",
"X c #603000",
"o c #68541F",
"O c #804000",
"+ c #A05000",
"@ c #AA8834",
"# c #F2C44D",
/* pixels */
"                                ",
"                                ",
"                                ",
"                                ",
"                                ",
"                                ",
"                                ",
"                                ",
"                                ",
"                                ",
"                                ",
"   #@oO++O+OOO#@oO++O+O+#@@@    ",
"  #@oO+O+O+OO#@oO++O+O+#@ooo@o  ",
" #@oO+O+O+OO#@oO+OOO+O#@oXOX@o  ",
" #@oO+O+O+OO#@oO+O+O+O#@oOXX@o  ",
"#@##########@#########@oXOXX@o  ",
"#@@@@@@@@@@@@@@@@@@@@@@oOOO@@o  ",
"#@oOO+OO+OO#@oO+O++OO#@oXO@@@o  ",
"#@oO++OO+OO#@oO+O++OO#@oX@@o@o..",
"#@oOO+OO+OO#@oOO+OO+O#@o@@oX@o..",
"#@oO++OO#########O+OO#@o@oXO@o..",
"#@#######@@@@@@@o####@@ooXXO@o..",
"#@@@@@@@#@@..@@@o@@@@@@oXOOX@o..",
"#@oO+OO+#@@@@@@@oO++O#@oXXX@oo..",
"#@oO+O+O#ooooooooO+O+#@oXX@oo...",
"#@oOOO+OO+O#@oOO+O+O+#@oX@oo....",
"#@oO+O+OO+O#@oOO+O+O+#@o@oo.... ",
"#@##########@@########@@oo....  ",
"#@@@@@@@@@@@@@@@@@@@@@@oo....   ",
"#@@@@@@@@@@@@@@@@@@@@@@o....    ",
"...........................     ",
" .........................      "
};
