/* XPM */
static char *_9e17dcb6b01497682768c74f7c0c6deNN3VIlqV6VQ97mtT[] = {
/* columns rows colors chars-per-pixel */
"32 32 7 1 ",
"  c None",
". c black",
"X c #800000",
"o c #A00000",
"O c #C00000",
"+ c #E00000",
"@ c #C0C000",
/* pixels */
"                                ",
"                                ",
"               ..               ",
"              .XX.              ",
"             +XooX+             ",
"             .+XX+.             ",
"             .@XX@.             ",
"             .XXXX.             ",
"            .XXooXX.            ",
"           .ooooXooX.           ",
"          .ooXOOoOOoX.          ",
"         .ooXXooooXooX.         ",
"         .ooXXo++XXooX.         ",
"        .ooX.XOOooX.ooX.        ",
"        .oX..X+++OX..oX.        ",
"      ..ooX..XOoooX..ooX..      ",
"     .oXoo. .X+++OX. .ooXo.     ",
"     .oXXX. .XOoooX. .XXXo.     ",
"     .oX..  .X+++OX.  ..Xo.     ",
"      ..    .XO++OX.    ..      ",
"           .oXXOOXXX.           ",
"           .ooX..XoX.           ",
"           .ooX..ooX.   .       ",
"           .oX.XX.oo.  .X.      ",
"          .ooX.XX.ooX.  .X.     ",
"          .ooX.XX.ooX. .XX.     ",
"          .ooX..X.ooX..XXX.     ",
"          .oX. .XX.oo.XXX.      ",
"         .ooX.  .X.ooX.X.       ",
"        .ooX.    ...ooX.        ",
"        .+X+.      .+X+.        ",
"         ...        ...         "
};
