/* XPM */
static char *_f602f2e275349c0b4c6fb971d4d465fOyvvfbAdGRio815v[] = {
/* columns rows colors chars-per-pixel */
"32 32 8 1 ",
"  c #200000",
". c #301800",
"X c #402000",
"o c #603000",
"O c #804000",
"+ c #A05000",
"@ c #C06000",
"# c #E07000",
/* pixels */
".  ... . ........  . .. .. . ...",
"  oOO##@+o##@o.+@@#@+##+@#@@@#@O",
" o@#@@+OOOo@+O.@+O+OO++O++OOoOXo",
".+#OO++@O++OoOX.@O+O+OOOOoOoOOoX",
" #@+O@+OoOooOoX.+oOOO+Oo+OoooOOo",
".#+OoO+oOXOOoX .+Oo++OoOO+oOOooX",
" +OoO+OoOoooX . .@oOOOO+OooOooXo",
".@o.OoOooXoXo . .+oOoOoOoX.X Xo.",
".  . ..... .   .   . . .. .. ...",
"#@O@++@@+OOX.Xo@@O+O+XX +@@@O+OO",
"O+OO+O+oooOo oO+O+OO+OX.@+O++O++",
"oo++OoOO+OoO.+oOO+OoOOo +O+OO+OO",
"oO+OOOoOooOo OoO+OoOooO.@@OoOoO+",
"ooOooOooOooO.oOooOOooOo +OoXoOOo",
"XOOOoooOooXo OoOOooOXoX.+oOoXOoo",
"oXooXXoooXXX oXoXXoXoXo.OXXoXoXX",
"....   . ..  .  .. . ..... . ...",
".XO+@X o+@+@O@X  X@@+O++O.O@+@O+",
" +@O+o.X@+O+O+O X@+O+O@OoX@+++oO",
".#OO+Oo  @+O+Oo @ooOOo+oX+oOOoOo",
" #o+Oo+oX OooXo @O++oOoX+OooOOoo",
".+OOoOo+O +XooX @+oOoOX.+oXOooXX",
".@oooOoOo XOoXo.+OOooX.+oXoooXoo",
".oOOoooOoX OXoX.+oooX  +oooXoXXX",
". .. . ...  . .... . .  ..   ...",
"#O+O@Oo  X@o o+O+@@O@@+OX.O+@+O@",
"OoOO+oO X@+O @OOOOoOO+Ooo.+O+O++",
"+OooXOo @O++X@OOOooooOoXo.@+O+Oo",
"O+OOoXX +oO+X @ooOoOoo.o..@OoOoO",
"+OoOooX @OoOo +XooOooOo.X.@o+oOo",
"oOOoOXo @oOoX O..oo.Xo.X..+oOXo.",
"oXXX.oX +OoXX O.oX.XoXXo.XoOXXX."
};
