/* XPM */
static char *d4a3febd87354e9dd6f8315c0d7e12e0udxOCkQxOpV0wCwa[] = {
/* columns rows colors chars-per-pixel */
"32 32 10 1 ",
"  c None",
". c black",
"X c #241B00",
"o c #523E00",
"O c #785A00",
"+ c #9E7700",
"@ c #DAA810",
"# c #FFCA29",
"$ c #FFE18F",
"% c white",
/* pixels */
"                                ",
"                                ",
"             ....               ",
"    .....   .@#+o.       .      ",
"   .@###@.  .#%#+.      .#.     ",
"  .+#$#@++. .oXX@.      .%.     ",
"  .#%###@+. .@X#+.      .#.     ",
"  .@#%#@+@..#+X@+.     .$@.     ",
"  .@%###@+.@$oXXo+.    .@+.     ",
"  .@#$#@+@X+@#oo@+@.   .@.      ",
"  .+###@@+oOo%#+#+o.  .#@.      ",
"   .@#@#@oX.o#+#+Xo.  .@+.      ",
"   .@#+@+X..@o#+#@+#..+@.       ",
"    .@#++. .+o##o.#Xo@OO.       ",
"    .+++.  .+$+oo@ooOo@.        ",
"     .++. .O%##@++..oo.@.       ",
"      ..  .@#$+#+O. .. .        ",
"          .#$@..+O.             ",
"         .O#@. .+O#.            ",
"        .+%++. .##O.            ",
"         .+$$.  .+O.. ...       ",
"         .##o.  .++o.....  ..   ",
"         .$@+....+O+........    ",
"     .....#+#....O+o........    ",
"    .+++o#++oX+XX+O+XoXooXo..   ",
"   .+X++o#++#+oo+oXoXXoXXoXX..  ",
"  .+X++ooooooooooooXooXXoXXXo.. ",
" .+o+o++ooooooXXXXXXXXXXXXXXXo..",
" .$$#$$$#$##$$$##$###@##+@#@#@..",
" .$+O+O++OO+@@OOOo+o+OOOO+oo++..",
" .###@@+++#$$+$@#@+$@@##@@++@@. ",
" .............................. "
};
